# xmcd CD database file
#
# Track frame offsets:
#	150
#	25272
#	50847
#	67122
#	91950
#	116325
#	137400
#	166052
#	193505
#	217127
#	234602
#	266890
#
# Disc length: 3831 seconds
#
# Revision: 0
# Processed by: cddbd v1.5.2PL0 Copyright (c) Steve Scherf et al.
# Submitted via: CDex 1.51
#
DISCID=af0ef50c
DTITLE=Tommy Flanagan - Let's Play the Music of Thad Jones
DYEAR=1993
DGENRE=Jazz
TTITLE0=Let's
TTITLE1=Mean What You Say
TTITLE2=To You
TTITLE3=Bird Song
TTITLE4=Scratch
TTITLE5=Thadrack
TTITLE6=A Child is Born
TTITLE7=Three in One
TTITLE8=Quietude
TTITLE9=Zec
TTITLE10=Elusive
TTITLE11=Bitty Ditty
EXTD=YEAR: 1993
EXTT0=
EXTT1=
EXTT2=
EXTT3=
EXTT4=
EXTT5=
EXTT6=
EXTT7=
EXTT8=
EXTT9=
EXTT10=
EXTT11=
PLAYORDER=
